<?xml version="1.0" encoding="utf-8" ?>
<svg xmlns="http://www.w3.org/2000/svg" xmlns:xlink="http://www.w3.org/1999/xlink" width="720" height="633">
	<path d="M281.6 121.179C282.22 105.156 281.734 88.9889 281.584 72.9504C281.501 64.1083 280.575 54.3607 282.358 45.6645C284.102 37.16 288.118 28.6624 294.543 22.7025C298.912 18.6494 304.844 15.4759 310.944 15.689C315.208 15.838 318.908 17.7582 321.757 20.8493C333.635 33.7377 335.487 83.1957 336.97 102.012C337.537 109.213 338.922 116.92 339.019 124.07C339.814 127.745 340.91 139.937 343.795 142.014C344.444 142.482 344.66 142.365 345.407 142.261C349.342 139.465 350.738 132.479 352.321 128.178C356.029 114.531 360.905 87.0606 367.132 76.0389C370.84 69.4749 377.258 63.217 383.769 59.4476C388.769 56.5528 394.791 54.8595 400.522 56.3701C404.86 57.5137 408.407 60.4021 410.595 64.2938C413.135 68.8117 413.883 74.1148 413.912 79.2266C413.975 90.0721 410.715 103.507 408.844 114.339C407.282 123.387 406.143 132.81 403.985 141.724C403.886 144.901 402.903 148.449 402.34 151.606L398.441 173.836C397.487 179.019 395.924 184.787 395.866 190.039C395.851 191.342 395.871 192.89 396.728 193.965C397.28 194.656 397.654 194.803 398.502 194.941C399.581 194.582 400.143 194.005 400.872 193.144C404.133 189.295 406.769 184.586 409.536 180.365L424.924 157.159C427.943 152.579 430.801 147.655 434.193 143.356C437.998 138.536 444.781 134.332 450.931 133.578C455.477 132.498 459.914 132.89 464.452 133.821C466.104 134.316 467.785 134.955 469.305 135.772C473.753 138.164 477.283 141.903 478.729 146.806C479.554 149.604 479.732 152.678 479.102 155.532C477.667 162.028 468.623 176.193 464.986 182.978C454.92 201.958 444.976 221.002 435.156 240.11C419.158 271.636 397.527 308.45 408.743 345.003C410.846 351.855 413.79 357.693 419.388 362.31C431.712 372.473 451.251 381.574 465.808 388.709C474.053 392.751 482.215 397.003 490.418 401.135L562.663 438.019C582.968 448.327 603.466 458.38 623.612 468.982C642.68 479.017 656.874 494.029 663.268 514.922C669.463 535.821 667.081 558.326 656.65 577.467C647.178 594.959 630.018 609.219 610.948 614.926C595.923 619.585 579.829 619.52 564.843 614.739C554.691 611.601 544.932 605.487 535.521 600.596L495.805 580.171L378.284 519.046C349.657 504.177 321.268 488.665 291.406 476.407C277.285 470.611 261.358 464.926 246.296 462.309C240.316 461.27 234.55 461.506 228.538 461.312C218.868 460.999 209.559 458.003 200.952 453.722C194.397 450.462 188.008 446.754 182.202 442.279C176.043 437.533 170.688 431.871 165.053 426.536C154.761 416.792 143.963 407.108 132.081 399.337C117.909 390.068 101.45 383.332 85.7888 376.971C79.9098 374.583 71.8654 372.056 66.503 368.956C63.678 367.323 62.4215 364.868 61.6031 361.818C60.0926 356.189 62.1832 350.272 65.0294 345.422C70.0432 336.879 79.144 329.984 88.7622 327.533C95.1276 325.911 101.943 325.782 108.299 327.535C115.23 329.446 121.794 333.224 128.157 336.51L147.904 346.646C161.471 353.555 175.715 359.908 188.792 367.676C195.593 363.407 202.15 358.735 208.836 354.286C234.619 337.134 259.957 319.227 285.92 302.364C285.17 298.54 285.385 294.227 285.225 290.322L284.266 266.154L280.997 182.323C264.565 173.619 248.03 165.11 231.396 156.8L214.908 148.457C210.976 146.459 206.808 144.559 203.215 141.988C195.204 136.258 190.875 126.475 189.272 117C188.49 109.242 189.144 100.893 194.34 94.6572C197.066 91.3852 200.731 89.4136 205 89.0531C208.444 88.7623 211.809 89.4616 215.017 90.6885C218.548 92.039 221.92 94.0445 225.264 95.8056C230.092 98.3478 234.939 100.854 239.804 103.324L262.961 115.239C267.569 117.578 272.412 119.733 276.88 122.312C277.895 122.621 278.806 122.861 279.865 122.95C280.895 122.465 281.002 122.118 281.6 121.179Z"/>
	<path d="M281.6 121.179C282.22 105.156 281.734 88.9889 281.584 72.9504C281.501 64.1083 280.575 54.3607 282.358 45.6645C284.102 37.16 288.118 28.6624 294.543 22.7025C298.912 18.6494 304.844 15.4759 310.944 15.689C315.208 15.838 318.908 17.7582 321.757 20.8493C333.635 33.7377 335.487 83.1957 336.97 102.012C337.537 109.213 338.922 116.92 339.019 124.07C338.958 124.12 338.886 124.159 338.835 124.219C338.234 124.932 338.611 127.213 338.8 128.134L339 127.431L338.482 127.762L338.96 127.651L338.468 127.721C338.081 126.205 337.953 124.381 336.848 123.275C336.328 123.267 336.572 123.298 335.975 123.148C334.86 122.868 331.152 126.708 329.55 127.252C327.355 127.996 323.464 128.551 321.28 127.755C319.908 127.255 318.765 126.526 317.243 126.49C315.272 126.443 313.282 126.741 311.304 126.751C306.801 126.774 302.288 126.556 297.787 126.649C296.287 126.68 293.795 127.292 292.462 126.882C292.357 126.85 292.26 126.798 292.164 126.747C291.604 126.455 291.15 126.269 290.557 126.057L290.187 127.155L289.995 127.104L289.481 126.109C289.003 126.548 288.532 126.995 288.067 127.448L287.765 127.36L287.522 126.568L287.034 126.852C286.549 126.201 287.118 125.479 286.241 124.265C286.377 123.773 286.479 123.446 286.787 123.027C286.863 122.924 286.947 122.828 287.027 122.729C286.455 122.032 286.351 122.03 285.474 121.778L285.8 121.56L285.36 121.736C284.947 121.01 284.59 120.659 283.92 120.163C282.866 120.927 282.404 122.886 281.75 124.059C280.986 124.475 280.924 124.361 280.06 124.167L280.03 123.802C280.597 123.459 281.131 123.173 281.532 122.628C281.863 122.177 281.655 121.706 281.6 121.179Z"/>
	<path d="M352.321 128.178C356.029 114.531 360.905 87.0606 367.132 76.0389C370.84 69.4749 377.258 63.217 383.769 59.4476C388.769 56.5528 394.791 54.8595 400.522 56.3701C404.86 57.5137 408.407 60.4021 410.595 64.2938C413.135 68.8117 413.883 74.1148 413.912 79.2266C413.975 90.0721 410.715 103.507 408.844 114.339C407.282 123.387 406.143 132.81 403.985 141.724C403.957 141.712 403.928 141.705 403.903 141.688C401.592 140.082 405.698 132.018 404.547 128.646C404.297 127.915 403.767 127.388 403.062 127.104C401.298 126.394 399.995 127.305 398.392 127.968C397.418 128.37 396.593 128.674 395.575 128.259C394.923 127.501 394.409 126.929 393.525 126.448C386.564 127.113 379.689 125.975 373.206 126.413C369.964 126.633 367.481 129.342 363.893 128.991C361.656 128.772 359.941 126.082 357.824 125.916L357.072 126.634C357.083 126.416 357.105 126.194 357.056 125.978C356.869 125.146 356.697 125.043 356.015 124.638C355.086 124.938 355.011 125.112 354.389 125.884C354.163 127.679 353.264 129.126 352.469 130.723C352.566 129.91 352.506 129.268 352.372 128.471L352.321 128.178Z"/>
	<path d="M189.272 117C188.49 109.242 189.144 100.893 194.34 94.6572C197.066 91.3852 200.731 89.4136 205 89.0531C208.444 88.7623 211.809 89.4616 215.017 90.6885C218.548 92.039 221.92 94.0445 225.264 95.8056C230.092 98.3478 234.939 100.854 239.804 103.324L262.961 115.239C267.569 117.578 272.412 119.733 276.88 122.312C277.233 122.817 277.574 123.235 277.76 123.829L277.521 124.17C276.459 123.853 275.517 123.63 274.412 123.544C273.576 124.108 273.66 124.473 273.417 125.426C272.137 125.098 271.704 123.604 270.601 123.373C268.806 122.998 269.14 124.484 265.977 123.238C265.294 124.072 266.126 124.747 265.818 125.833C264.497 127.2 261.56 127.577 259.709 127.441C258.734 127.37 258.414 126.959 257.879 126.219C257.469 126.312 257.052 126.391 256.645 126.493C253.107 127.381 246.075 126.727 242.185 126.733C233.752 126.747 225.178 127.078 216.759 126.72C214.929 126.642 212.818 125.616 211.12 126.425L211.17 127.241L210.688 127.271L210.635 126.286C209.588 126.275 207.14 127.011 206.381 127.801C206.288 127.898 206.223 128.017 206.144 128.126L205.636 127.568C205.28 128.272 205.009 128.757 204.443 129.324C204.095 128.672 204.208 128.92 203.936 128.279L203.757 127.849C202.556 128.062 201.673 129.7 200.444 130.258C199.823 130.261 199.288 130.366 198.73 130.059C196.625 128.901 193.884 123.292 193.359 121.002C193.146 120.07 192.724 119.545 192.104 118.836L191.746 118.819L191.322 119.596C191.187 118.743 191.501 118.271 191.887 117.545L192.049 117.246C191.76 116.383 191.575 116.313 190.846 115.743C190.011 116.037 189.791 116.326 189.272 117Z"/>
	<path d="M450.931 133.578C455.477 132.498 459.914 132.89 464.452 133.821C460.168 134.886 455.346 133.736 450.931 133.578Z"/>
	<path fill="#FFFBFB" d="M578.61 483.039C608.995 480.521 635.641 503.169 638.043 533.555C640.446 563.941 617.69 590.493 587.287 592.779C557.048 595.052 530.664 572.451 528.274 542.23C525.885 512.008 548.39 485.544 578.61 483.039Z"/>
	<path d="M555.659 520.43C557.909 516.018 562.014 512.157 566.267 509.692C573.881 505.18 582.988 503.912 591.545 506.172C598.828 508.143 606.405 512.768 610.256 519.427C614.323 523.345 615.873 532.578 615.943 537.967C616.056 546.641 612.395 555.221 606.271 561.333C600.043 567.549 591.325 570.668 582.596 570.597C573.968 570.569 565.72 567.042 559.74 560.823C553.632 554.579 550.275 546.152 550.419 537.42C550.535 531.824 552.214 524.958 555.659 520.43Z"/>
	<path d="M555.659 520.43C557.909 516.018 562.014 512.157 566.267 509.692C573.881 505.18 582.988 503.912 591.545 506.172C598.828 508.143 606.405 512.768 610.256 519.427C610.244 519.533 610.218 519.638 610.222 519.745C610.275 521.309 612.014 522.389 611.804 523.986C609.297 525.031 604.893 525.029 602.171 525.136C597.263 525.33 558.874 525.073 557.212 524.377C556.328 524.006 555.464 523.581 554.603 523.158C555.029 522.493 556.075 521.221 556.08 520.485L555.659 520.43Z"/>
	<path d="M79.7956 200.127L146.71 155.359C152.136 151.777 163.174 143.263 168.566 141.05C174.245 142.08 190.958 151.359 197.158 154.374L237.151 173.988C246.524 178.577 256.01 183.013 265.205 187.951C265.505 190.899 265.737 193.809 265.812 196.775C266.553 202.722 266.726 208.81 267.123 214.792L269.44 250.723L271.458 279.379C271.846 284.619 272.532 289.999 272.53 295.249C253.36 307.86 234.28 320.609 215.293 333.495L194.697 347.297C190.925 349.813 187.155 352.586 183.199 354.79C179.142 353.077 175.271 350.894 171.345 348.9C165.775 346.114 160.188 343.364 154.582 340.651C131.955 329.736 109.397 318.679 86.9099 307.478C85.1384 293.39 84.7696 279.008 83.8073 264.832C82.4435 244.744 80.7186 224.603 79.8313 204.489L79.7956 200.127Z"/>
	<path fill="#FFFBFB" d="M147.055 206.609C155.282 202.027 164.103 193.686 172.383 190.144C181.198 194.167 189.815 198.607 198.552 202.796C207.107 207.02 215.854 210.997 224.255 215.511C225.039 229.063 225.928 242.608 226.921 256.145C227.319 261.69 227.261 267.599 228.178 273.067L179.885 305.557C162.698 297.119 145.089 287.854 127.761 279.941C126.914 260.699 125.02 241.49 123.951 222.256C131.511 216.842 139.414 211.908 147.055 206.609Z"/>
	<path d="M79.7956 200.127L146.71 155.359C152.136 151.777 163.174 143.263 168.566 141.05C174.245 142.08 190.958 151.359 197.158 154.374L237.151 173.988C246.524 178.577 256.01 183.013 265.205 187.951C265.505 190.899 265.737 193.809 265.812 196.775C265.683 198.316 265.863 201.851 264.948 202.928C265.094 203.087 265.018 203.074 265.122 203.08L264.96 201.481C264.326 201.247 263.554 201.353 262.931 201.604C262.398 201.819 261.905 202.274 261.453 202.62C260.411 203.417 259.531 203.759 258.218 203.887C255.208 204.181 252.027 203.481 248.988 203.474L227.444 203.632C223.563 203.643 219.586 203.868 215.734 203.34C213.202 202.993 200.939 200.451 199.351 201.661C198.904 202.002 198.78 202.302 198.552 202.796C189.815 198.607 181.198 194.167 172.383 190.144C164.103 193.686 155.282 202.027 147.055 206.609L146.911 204.926C146.321 204.213 146.082 204.097 145.175 203.932C141.541 203.273 137.652 203.851 133.978 203.825L109.654 203.649C101.271 203.629 93.0543 202.669 84.6415 203.191C82.9141 203.298 81.2752 203.448 79.8313 204.489L79.7956 200.127Z"/>
</svg>
