<svg width="120" height="29" viewBox="0 0 120 29" fill="none" xmlns="http://www.w3.org/2000/svg">
<g id="OMNI logo">
<g id="Symbol">
<mask id="mask0_1_721" style="mask-type:luminance" maskUnits="userSpaceOnUse" x="0" y="0" width="35" height="29">
<g id="clippath">
<path id="Vector" d="M34.7136 0H0V29H34.7136V0Z" fill="white"/>
</g>
</mask>
<g mask="url(#mask0_1_721)">
<g id="Group">
<g id="Group_2">
<path id="Vector_2" d="M11.7095 17.9277L9.9057 19.0119L3.42927 22.893C3.0215 23.1328 2.77204 23.5742 2.77204 24.0491V27.6567C2.77204 28.4003 3.3813 29.0048 4.12489 29.0048H7.74209C8.21703 29.0048 8.65839 28.7553 8.90305 28.3524L15.3315 17.707L15.3555 17.6782L15.6769 17.1409L15.9312 16.5749C16.1902 15.9128 16.3294 15.222 16.3294 14.5024C16.3294 13.7828 16.1998 13.0968 15.9216 12.406L15.6721 11.8639L8.90305 0.65244C8.65839 0.244665 8.21703 0 7.74209 0H4.12969C3.3861 0 2.77683 0.599669 2.77683 1.34806V4.95567C2.77683 5.42581 3.0263 5.86716 3.43407 6.11183L9.9057 9.98809L11.7287 11.0819L11.9302 11.2018L12.4723 11.5328C12.8081 11.7391 13.1055 11.9886 13.3598 12.2668C13.734 12.689 13.4414 13.3606 12.8753 13.399L10.0784 13.5765C8.58643 13.6725 7.12803 13.1208 6.06782 12.0701L4.59503 10.6022C4.24482 10.2567 3.68353 10.2567 3.34292 10.6022L0.263021 13.6485C-0.0871855 13.9939 -0.0871855 14.5552 0.263021 14.8958L3.33333 17.9517C3.68353 18.2971 4.24482 18.2971 4.58544 17.9517L6.05822 16.4837C7.11844 15.4283 8.57204 14.8814 10.0688 14.9773L13.1967 15.174C13.7004 15.2028 14.017 15.7497 13.7628 16.1815C13.4605 16.6948 13.0192 17.1457 12.4675 17.4768L11.9158 17.8078" fill="black"/>
<path id="Vector_3" d="M22.8191 11.1922L22.277 11.5232C21.9412 11.7295 21.6437 11.979 21.3895 12.2572C21.0153 12.6794 21.3079 13.351 21.874 13.3894L24.6709 13.5669C26.1628 13.6629 27.6212 13.1112 28.6814 12.0605L30.1542 10.5926C30.5044 10.2471 31.0657 10.2471 31.4063 10.5926L34.4767 13.6485C34.8269 13.9939 34.8269 14.5552 34.4767 14.8958L31.4063 17.9517C31.0561 18.2971 30.4948 18.2971 30.1542 17.9517L28.6814 16.4837C27.6212 15.4283 26.1676 14.8814 24.6709 14.9773L21.543 15.174C21.0393 15.2028 20.7226 15.7497 20.9769 16.1815C21.2791 16.6948 21.7205 17.1457 22.2722 17.4768L22.8239 17.8078L23.0254 17.9277L24.8292 19.0119L31.3056 22.893C31.7134 23.1328 31.9628 23.5742 31.9628 24.0491V27.6567C31.9628 28.4003 31.3536 29.0048 30.61 29.0048H26.9928C26.5178 29.0048 26.0765 28.7553 25.8318 28.3524L19.4034 17.707L19.3794 17.6782L19.058 17.1409L18.8037 16.5749C18.5446 15.9128 18.4055 15.222 18.4055 14.5024C18.4055 13.7828 18.535 13.0968 18.8133 12.406L19.0628 11.8639L25.827 0.65244C26.0717 0.244665 26.513 0 26.988 0H30.6052C31.3488 0 31.958 0.599669 31.958 1.34806V4.95567C31.958 5.42581 31.7086 5.86716 31.3008 6.11183L24.8292 9.98809L23.0062 11.0819" fill="black"/>
</g>
</g>
</g>
</g>
<g id="OMNI">
<path d="M46.5 19.8C44.3 21.8 41.6 22.8 38.5 22.8C35.4 22.8 32.7 21.8 30.5 19.8C28.3 17.8 27.2 15.2 27.2 12C27.2 8.8 28.3 6.2 30.5 4.2C32.7 2.2 35.4 1.2 38.5 1.2C41.6 1.2 44.3 2.2 46.5 4.2C48.7 6.2 49.8 8.8 49.8 12C49.8 15.2 48.7 17.8 46.5 19.8ZM43.8 6.8C42.4 5.4 40.6 4.7 38.5 4.7C36.4 4.7 34.6 5.4 33.2 6.8C31.8 8.2 31.1 10 31.1 12C31.1 14 31.8 15.8 33.2 17.2C34.6 18.6 36.4 19.3 38.5 19.3C40.6 19.3 42.4 18.6 43.8 17.2C45.2 15.8 45.9 14 45.9 12C45.9 10 45.2 8.2 43.8 6.8Z" fill="black"/>
<path d="M69.5 22.5H65.7V8.5L59.9 22.5H56.8L51 8.5V22.5H47.2V1.5H52.1L58.35 16.8L64.6 1.5H69.5V22.5Z" fill="black"/>
<path d="M89.2 22.5H85.4V8.2L78.8 22.5H75.7V1.5H79.5V15.8L86.1 1.5H89.2V22.5Z" fill="black"/>
<path d="M96.5 22.5H92.7V1.5H96.5V22.5Z" fill="black"/>
</g>
</g>
</svg>
